<mxfile host="app.diagrams.net" modified="2023-05-22T00:11:46.045Z" agent="Mozilla/5.0 (Macintosh; Intel Mac OS X 10.15; rv:109.0) Gecko/20100101 Firefox/113.0" version="21.3.2" etag="7JUosdbjkApK1hyw_wX2" type="github">
  <diagram name="第 1 页" id="7F5--2QonReeKfyoxzan">
    <mxGraphModel>
      <root>
        <mxCell id="0" />
        <mxCell id="1" parent="0" />
      </root>
    </mxGraphModel>
  </diagram>
</mxfile>
